{"title":"Fatmagul E94-96 DVDRip GR Subs","uid":8592342,"size":1181724288,"categoryP":"video","categoryS":"tv_shows","magnet":"?xt=urn:btih:4572788a614485dc66b7c09e8f6ba8391a1a607a&amp;dn=Fatmagul+E94-96+DVDRip+GR+Subs&amp;tr=udp%3A%2F%2Ftracker.openbittorrent.com%3A80&amp;tr=udp%3A%2F%2Fopen.demonii.com%3A1337&amp;tr=udp%3A%2F%2Ftracker.coppersurfer.tk%3A6969&amp;tr=udp%3A%2F%2Fexodus.desync.com%3A6969","seeders":1,"leechers":0,"uploader":"nassiea","files":-1,"time":1371673645,"description":"\nVideo\nID                                       : 0\nFormat                                   : xvid\nCodec ID                                 : xvid\nDuration                                 : 2h 17mn\nBit rate                                 : 1 000 Kbps\nWidth                                    : 640 pixels\nHeight                                   : 480 pixels\nDisplay aspect ratio                     : 4:3\nFrame rate                               : 25.000 fps\nBits/(Pixel*Frame)                       : 0.130\nStream size                              : 985 MiB (87%)\n\nAudio\nID                                       : 1\nFormat                                   : MPEG Audio\nFormat version                           : Version 1\nFormat profile                           : Layer 3\nMode                                     : Joint stereo\nMode extension                           : MS Stereo\nCodec ID                                 : 55\nCodec ID/Hint                            : MP3\nDuration                                 : 2h 17mn\nBit rate mode                            : Constant\nBit rate                                 : 128 Kbps\nChannel(s)                               : 2 channels\nSampling rate                            : 48.0 KHz\nCompression mode                         : Lossy\nStream size                              : 126 MiB (11%)\nAlignment                                : Aligned on interleaves\nInterleave, duration                     : 24 ms (0.60 video frame)\n","torrent":{"xt":"urn:btih:4572788a614485dc66b7c09e8f6ba8391a1a607a","amp;dn":"Fatmagul+E94-96+DVDRip+GR+Subs","amp;tr":["udp%3A%2F%2Ftracker.openbittorrent.com%3A80","udp%3A%2F%2Fopen.demonii.com%3A1337","udp%3A%2F%2Ftracker.coppersurfer.tk%3A6969","udp%3A%2F%2Fexodus.desync.com%3A6969"],"infoHash":"4572788a614485dc66b7c09e8f6ba8391a1a607a","infoHashBuffer":{"type":"Buffer","data":[69,114,120,138,97,68,133,220,102,183,192,158,143,107,168,57,26,26,96,122]},"announce":[],"urlList":[]}}